<svg xmlns="http://www.w3.org/2000/svg" xmlns:xlink="http://www.w3.org/1999/xlink" width="500" zoomAndPan="magnify" viewBox="0 0 375 374.999991" height="500" preserveAspectRatio="xMidYMid meet" version="1.0"><defs><g/><clipPath id="426bbe8318"><path d="M 52 55.628906 L 345.128906 55.628906 L 345.128906 341 L 52 341 Z M 52 55.628906 " clip-rule="nonzero"/></clipPath><clipPath id="4cfb13a296"><path d="M 40.570312 44.203125 L 333.820312 44.203125 L 333.820312 330.699219 L 40.570312 330.699219 Z M 40.570312 44.203125 " clip-rule="nonzero"/></clipPath></defs><g clip-path="url(#426bbe8318)"><path fill="#1e9aff" d="M 52 55.628906 L 346.671875 55.628906 L 346.671875 340.796875 L 52 340.796875 Z M 52 55.628906 " fill-opacity="1" fill-rule="nonzero"/></g><g clip-path="url(#4cfb13a296)"><path stroke-linecap="butt" transform="matrix(0.75033, 0, 0, 0.749755, 40.569681, 44.202122)" fill="none" stroke-linejoin="miter" d="M 0.000841582 0.00133791 L 390.829003 0.00133791 L 390.829003 382.121135 L 0.000841582 382.121135 L 0.000841582 0.00133791 " stroke="#000000" stroke-width="4" stroke-opacity="1" stroke-miterlimit="4"/></g><g fill="#0a0a1e" fill-opacity="0.302"><g transform="translate(89.556988, 300.931003)"><g><path d="M 76.464844 -162.394531 L 31.863281 -154.632812 C 23.421875 -152.984375 19.753906 -145.398438 20.867188 -139.003906 C 21.863281 -133.296875 26.597656 -128.601562 35.414062 -130.136719 L 53.566406 -133.296875 L 40.214844 -48.324219 C 37.894531 -34.027344 31.730469 -28.5 23.605469 -27.085938 C 20.320312 -26.515625 17.269531 -29.722656 17 -31.28125 C 17.050781 -32 16.898438 -32.867188 16.78125 -33.558594 C 15.605469 -40.300781 8.488281 -43.335938 2.089844 -42.222656 C -4.304688 -41.109375 -10.152344 -35.816406 -8.40625 -25.789062 C -5.640625 -9.882812 11.425781 0.148438 30.441406 -3.160156 C 44.964844 -5.6875 62.914062 -17.183594 67.472656 -45.230469 L 85.636719 -158.828125 C 86.082031 -161.398438 84.074219 -163.71875 81.308594 -163.238281 Z M 76.464844 -162.394531 "/></g></g></g><g fill="#0a0a1e" fill-opacity="0.502"><g transform="translate(78.428863, 288.517332)"><g><path d="M 76.464844 -162.394531 L 31.863281 -154.632812 C 23.421875 -152.984375 19.753906 -145.398438 20.867188 -139.003906 C 21.863281 -133.296875 26.597656 -128.601562 35.414062 -130.136719 L 53.566406 -133.296875 L 40.214844 -48.324219 C 37.894531 -34.027344 31.730469 -28.5 23.605469 -27.085938 C 20.320312 -26.515625 17.269531 -29.722656 17 -31.28125 C 17.050781 -32 16.898438 -32.867188 16.78125 -33.558594 C 15.605469 -40.300781 8.488281 -43.335938 2.089844 -42.222656 C -4.304688 -41.109375 -10.152344 -35.816406 -8.40625 -25.789062 C -5.640625 -9.882812 11.425781 0.148438 30.441406 -3.160156 C 44.964844 -5.6875 62.914062 -17.183594 67.472656 -45.230469 L 85.636719 -158.828125 C 86.082031 -161.398438 84.074219 -163.71875 81.308594 -163.238281 Z M 76.464844 -162.394531 "/></g></g></g><g fill="#f4f4eb" fill-opacity="1"><g transform="translate(67.30077, 276.103676)"><g><path d="M 76.464844 -162.394531 L 31.863281 -154.632812 C 23.421875 -152.984375 19.753906 -145.398438 20.867188 -139.003906 C 21.863281 -133.296875 26.597656 -128.601562 35.414062 -130.136719 L 53.566406 -133.296875 L 40.214844 -48.324219 C 37.894531 -34.027344 31.730469 -28.5 23.605469 -27.085938 C 20.320312 -26.515625 17.269531 -29.722656 17 -31.28125 C 17.050781 -32 16.898438 -32.867188 16.78125 -33.558594 C 15.605469 -40.300781 8.488281 -43.335938 2.089844 -42.222656 C -4.304688 -41.109375 -10.152344 -35.816406 -8.40625 -25.789062 C -5.640625 -9.882812 11.425781 0.148438 30.441406 -3.160156 C 44.964844 -5.6875 62.914062 -17.183594 67.472656 -45.230469 L 85.636719 -158.828125 C 86.082031 -161.398438 84.074219 -163.71875 81.308594 -163.238281 Z M 76.464844 -162.394531 "/></g></g></g><g fill="#0a0a1e" fill-opacity="0.302"><g transform="translate(164.221349, 266.104574)"><g><path d="M 19.671875 -14.378906 C 19.679688 -14.328125 19.539062 -15.140625 19.164062 -16.074219 C 19.476562 -16.390625 19.761719 -16.859375 19.988281 -17.371094 C 20.632812 -18.792969 21.386719 -23.484375 21.035156 -25.519531 C 20.128906 -30.710938 15.253906 -33.425781 9.757812 -32.46875 C 4.976562 -31.636719 0.910156 -28.203125 0.0703125 -23.390625 L -1.820312 -12.261719 C -2.058594 -10.910156 -2.039062 -9.605469 -1.84375 -8.484375 C -0.914062 -3.144531 4.222656 -0.734375 9.414062 -1.636719 C 13.378906 -2.328125 16.773438 -4.230469 18.269531 -8.265625 C 19.230469 -8.171875 20.324219 -8.203125 21.394531 -8.390625 C 27.398438 -9.433594 31.386719 -14.53125 32.183594 -20.175781 C 32.242188 -20.761719 32.253906 -21.289062 32.175781 -21.746094 C 31.847656 -23.628906 30.285156 -24.457031 28.8125 -24.199219 C 27.4375 -23.960938 26.15625 -22.898438 25.921875 -20.917969 C 25.351562 -17.570312 23.394531 -14.976562 20.390625 -14.453125 C 20.1875 -14.417969 19.882812 -14.363281 19.671875 -14.378906 Z M 13.574219 -21.390625 C 13.5 -20.90625 13.421875 -20.472656 13.441406 -20.058594 C 10.589844 -19.875 8.492188 -17.152344 9.027344 -14.097656 C 9.378906 -12.378906 10.402344 -11.613281 11.511719 -10.96875 C 11.160156 -9.070312 9.832031 -7.949219 8.257812 -7.675781 C 6.273438 -7.328125 5.550781 -8.460938 5.339844 -9.683594 C 5.171875 -10.648438 5.265625 -11.609375 5.378906 -12.152344 L 7.195312 -23.109375 C 7.511719 -24.894531 9.125 -26.171875 10.703125 -26.445312 C 12.28125 -26.722656 13.484375 -25.832031 13.6875 -24.660156 C 13.847656 -23.746094 13.746094 -22.519531 13.574219 -21.390625 Z M 13.574219 -21.390625 "/></g></g></g><g fill="#0a0a1e" fill-opacity="0.302"><g transform="translate(190.778403, 261.481883)"><g><path d="M 26.585938 -19.828125 C 25.359375 -13.324219 23.011719 -10.242188 20.671875 -9.835938 C 19.753906 -9.675781 19.054688 -10.078125 18.933594 -10.792969 C 18.894531 -10.996094 18.894531 -11.308594 18.953125 -11.582031 L 22.046875 -29.628906 C 22.164062 -30.171875 22.132812 -30.636719 22.054688 -31.097656 C 21.699219 -33.132812 19.679688 -34.195312 17.847656 -33.875 C 16.375 -33.621094 14.996094 -32.488281 14.605469 -30.21875 L 11.730469 -13.625 C 10.792969 -10.578125 9.019531 -7.808594 6.984375 -7.453125 C 6.222656 -7.320312 5.726562 -7.757812 5.59375 -8.523438 C 5.523438 -8.929688 5.507812 -9.609375 5.574219 -10.144531 L 8.355469 -26.980469 C 8.460938 -27.578125 8.476562 -28.105469 8.386719 -28.613281 C 8.023438 -30.699219 5.945312 -31.804688 4.0625 -31.476562 C 2.636719 -31.230469 1.261719 -30.097656 0.902344 -27.9375 L -2.03125 -9.554688 C -2.175781 -8.585938 -2.167969 -7.640625 -2.019531 -6.777344 C -1.300781 -2.65625 2.542969 -0.441406 6.816406 -1.1875 C 9.871094 -1.71875 11.902344 -3.59375 13.429688 -5.953125 C 15.289062 -4.023438 18.265625 -3.179688 21.316406 -3.710938 C 26.152344 -4.550781 31.175781 -8.519531 32.945312 -19.730469 C 32.992188 -20.054688 32.992188 -20.367188 32.9375 -20.671875 C 32.652344 -22.300781 30.960938 -23 29.382812 -22.726562 C 28.058594 -22.496094 26.808594 -21.546875 26.585938 -19.828125 Z M 26.585938 -19.828125 "/></g></g></g><g fill="#0a0a1e" fill-opacity="0.302"><g transform="translate(218.200342, 256.708645)"><g><path d="M 23.226562 -19.246094 C 22.160156 -13.921875 20.210938 -9.757812 18.074219 -9.382812 C 17.363281 -9.261719 16.890625 -9.859375 16.769531 -10.570312 C 16.714844 -10.878906 16.695312 -11.292969 16.777344 -11.726562 L 18.328125 -20.59375 C 18.453125 -21.664062 18.5 -22.613281 18.347656 -23.480469 C 17.507812 -28.3125 11.046875 -29.285156 8.046875 -29.65625 C 8.128906 -30.089844 8.101562 -30.554688 8.03125 -30.960938 C 7.621094 -33.300781 5.191406 -34.921875 2.902344 -34.523438 C -0.101562 -34.003906 -1.421875 -31.046875 -0.914062 -28.148438 C -0.695312 -26.875 -0.0078125 -25.632812 0.984375 -24.753906 L -0.984375 -14.085938 C -1.015625 -13.660156 -0.996094 -13.246094 -0.941406 -12.941406 C -0.648438 -11.261719 0.824219 -10.628906 2.25 -10.875 C 3.671875 -11.121094 5.007812 -12.195312 5.332031 -13.929688 L 6.855469 -22.054688 C 8.359375 -21.847656 10.304688 -21.816406 10.605469 -20.085938 C 10.648438 -19.832031 10.652344 -19.519531 10.609375 -19.144531 L 9.453125 -12.546875 C 9.25 -11.308594 9.230469 -10.203125 9.410156 -9.1875 C 10.179688 -4.757812 14.195312 -2.472656 18.417969 -3.207031 C 23.964844 -4.171875 28.140625 -9.984375 29.644531 -19.105469 C 29.695312 -19.425781 29.699219 -19.691406 29.65625 -19.945312 C 29.390625 -21.46875 27.535156 -22.195312 25.90625 -21.914062 C 24.585938 -21.683594 23.417969 -20.851562 23.226562 -19.246094 Z M 23.226562 -19.246094 "/></g></g></g><g fill="#0a0a1e" fill-opacity="0.302"><g transform="translate(242.264493, 252.519884)"><g><path d="M 25.839844 -19.59375 C 24.664062 -13.097656 22.296875 -10.121094 19.90625 -9.703125 C 18.992188 -9.542969 18.402344 -9.914062 18.253906 -10.777344 C 18.191406 -11.132812 18.222656 -11.558594 18.285156 -12.09375 L 20.289062 -24.078125 C 20.46875 -25.160156 20.511719 -26.109375 20.359375 -26.976562 C 19.652344 -31.046875 15.660156 -33.496094 11.589844 -32.789062 C 9.605469 -32.441406 8.109375 -31.710938 6.953125 -30.511719 C 6.488281 -31.375 5.128906 -31.664062 3.757812 -31.421875 C 2.332031 -31.175781 1.074219 -30.273438 0.8125 -28.761719 L -3.546875 -3.523438 C -3.621094 -3.039062 -3.601562 -2.621094 -3.53125 -2.214844 C -3.203125 -0.332031 -1.558594 0.375 0.0703125 0.09375 C 1.847656 -0.21875 3.691406 -1.691406 4.054688 -4.113281 C 4.976562 -9.359375 6.203125 -16.753906 7.085938 -21.9375 C 8.015625 -24.722656 9.582031 -26.253906 11.007812 -26.5 C 11.921875 -26.660156 12.691406 -26.164062 12.859375 -25.199219 C 12.921875 -24.839844 12.898438 -24.367188 12.828125 -23.882812 L 10.9375 -12.753906 C 10.734375 -11.511719 10.675781 -10.351562 10.859375 -9.28125 C 11.675781 -4.601562 15.976562 -2.78125 20.300781 -3.535156 C 25.488281 -4.4375 30.425781 -8.914062 32.207031 -19.445312 C 32.289062 -19.878906 32.320312 -20.304688 32.257812 -20.660156 C 31.976562 -22.289062 30.347656 -22.894531 28.824219 -22.628906 C 27.449219 -22.390625 26.054688 -21.363281 25.839844 -19.59375 Z M 25.839844 -19.59375 "/></g></g></g><g fill="#0a0a1e" fill-opacity="0.302"><g transform="translate(268.974174, 247.870626)"><g><path d="M 28.90625 -22.75 C 27.480469 -22.5 26.054688 -21.363281 25.78125 -19.320312 C 24.886719 -12.71875 22.042969 -10.074219 19.753906 -9.675781 C 18.890625 -9.527344 18.300781 -9.894531 18.160156 -10.710938 C 18.089844 -11.117188 18.101562 -11.644531 18.15625 -12.230469 L 20.984375 -29.703125 C 21.082031 -30.351562 21.085938 -30.929688 21 -31.4375 C 20.609375 -33.675781 18.574219 -34.527344 16.691406 -34.199219 C 15.265625 -33.953125 13.90625 -33.03125 13.3125 -31.621094 C 12.128906 -32.09375 10.015625 -32.511719 7.417969 -32.0625 C 4.0625 -31.476562 0.71875 -29.007812 0.0234375 -24.851562 L -2.375 -10.332031 C -2.519531 -9.363281 -2.566406 -8.414062 -2.40625 -7.496094 C -1.671875 -3.273438 2.339844 -0.40625 6.816406 -1.1875 C 9.207031 -1.601562 11.464844 -3.097656 13.054688 -5.101562 C 15.089844 -3.046875 18.773438 -3.269531 20.300781 -3.535156 C 24.523438 -4.269531 29.796875 -7.386719 31.621094 -16.199219 C 31.988281 -18.304688 32.324219 -19.675781 32.164062 -20.589844 C 31.863281 -22.320312 30.382812 -23.007812 28.90625 -22.75 Z M 12.027344 -20.335938 L 10.90625 -12.328125 C 10.414062 -8.835938 8.613281 -7.738281 7.542969 -7.550781 C 6.425781 -7.355469 5.742188 -7.972656 5.539062 -9.140625 C 5.421875 -9.800781 5.46875 -10.441406 5.542969 -10.925781 L 7.019531 -21.71875 C 7.445312 -24.988281 8.796875 -25.644531 9.613281 -25.785156 C 10.578125 -25.953125 11.816406 -25.171875 12.117188 -23.445312 C 12.25 -22.679688 12.214844 -21.679688 12.027344 -20.335938 Z M 12.027344 -20.335938 "/></g></g></g><g fill="#0a0a1e" fill-opacity="0.302"><g transform="translate(295.683854, 243.221369)"><g><path d="M 5.527344 -9.507812 L 10.828125 -42.300781 C 10.921875 -42.945312 10.917969 -43.574219 10.832031 -44.082031 C 10.492188 -46.015625 8.441406 -46.96875 6.914062 -46.703125 C 4.980469 -46.367188 3.894531 -45.078125 3.480469 -42.644531 L -1.84375 -10.582031 C -2.046875 -9.339844 -2.0625 -8.238281 -1.875 -7.167969 C -1.0625 -2.488281 3.257812 -0.566406 7.734375 -1.347656 C 12.566406 -2.1875 18.097656 -6.242188 19.816406 -17.445312 C 19.859375 -17.820312 19.847656 -18.183594 19.792969 -18.488281 C 19.511719 -20.117188 17.882812 -21.039062 16.304688 -20.765625 C 15.03125 -20.542969 13.792969 -19.542969 13.40625 -17.535156 C 12.179688 -11.03125 9.679688 -7.921875 7.289062 -7.507812 C 6.273438 -7.328125 5.605469 -7.84375 5.472656 -8.605469 C 5.4375 -8.808594 5.476562 -9.183594 5.527344 -9.507812 Z M 5.527344 -9.507812 "/></g></g></g><g fill="#0a0a1e" fill-opacity="0.502"><g transform="translate(159.912293, 261.297732)"><g><path d="M 19.671875 -14.378906 C 19.679688 -14.328125 19.539062 -15.140625 19.164062 -16.074219 C 19.476562 -16.390625 19.761719 -16.859375 19.988281 -17.371094 C 20.632812 -18.792969 21.386719 -23.484375 21.035156 -25.519531 C 20.128906 -30.710938 15.253906 -33.425781 9.757812 -32.46875 C 4.976562 -31.636719 0.910156 -28.203125 0.0703125 -23.390625 L -1.820312 -12.261719 C -2.058594 -10.910156 -2.039062 -9.605469 -1.84375 -8.484375 C -0.914062 -3.144531 4.222656 -0.734375 9.414062 -1.636719 C 13.378906 -2.328125 16.773438 -4.230469 18.269531 -8.265625 C 19.230469 -8.171875 20.324219 -8.203125 21.394531 -8.390625 C 27.398438 -9.433594 31.386719 -14.53125 32.183594 -20.175781 C 32.242188 -20.761719 32.253906 -21.289062 32.175781 -21.746094 C 31.847656 -23.628906 30.285156 -24.457031 28.8125 -24.199219 C 27.4375 -23.960938 26.15625 -22.898438 25.921875 -20.917969 C 25.351562 -17.570312 23.394531 -14.976562 20.390625 -14.453125 C 20.1875 -14.417969 19.882812 -14.363281 19.671875 -14.378906 Z M 13.574219 -21.390625 C 13.5 -20.90625 13.421875 -20.472656 13.441406 -20.058594 C 10.589844 -19.875 8.492188 -17.152344 9.027344 -14.097656 C 9.378906 -12.378906 10.402344 -11.613281 11.511719 -10.96875 C 11.160156 -9.070312 9.832031 -7.949219 8.257812 -7.675781 C 6.273438 -7.328125 5.550781 -8.460938 5.339844 -9.683594 C 5.171875 -10.648438 5.265625 -11.609375 5.378906 -12.152344 L 7.195312 -23.109375 C 7.511719 -24.894531 9.125 -26.171875 10.703125 -26.445312 C 12.28125 -26.722656 13.484375 -25.832031 13.6875 -24.660156 C 13.847656 -23.746094 13.746094 -22.519531 13.574219 -21.390625 Z M 13.574219 -21.390625 "/></g></g></g><g fill="#0a0a1e" fill-opacity="0.502"><g transform="translate(186.469348, 256.675041)"><g><path d="M 26.585938 -19.828125 C 25.359375 -13.324219 23.011719 -10.242188 20.671875 -9.835938 C 19.753906 -9.675781 19.054688 -10.078125 18.933594 -10.792969 C 18.894531 -10.996094 18.894531 -11.308594 18.953125 -11.582031 L 22.046875 -29.628906 C 22.164062 -30.171875 22.132812 -30.636719 22.054688 -31.097656 C 21.699219 -33.132812 19.679688 -34.195312 17.847656 -33.875 C 16.375 -33.621094 14.996094 -32.488281 14.605469 -30.21875 L 11.730469 -13.625 C 10.792969 -10.578125 9.019531 -7.808594 6.984375 -7.453125 C 6.222656 -7.320312 5.726562 -7.757812 5.59375 -8.523438 C 5.523438 -8.929688 5.507812 -9.609375 5.574219 -10.144531 L 8.355469 -26.980469 C 8.460938 -27.578125 8.476562 -28.105469 8.386719 -28.613281 C 8.023438 -30.699219 5.945312 -31.804688 4.0625 -31.476562 C 2.636719 -31.230469 1.261719 -30.097656 0.902344 -27.9375 L -2.03125 -9.554688 C -2.175781 -8.585938 -2.167969 -7.640625 -2.019531 -6.777344 C -1.300781 -2.65625 2.542969 -0.441406 6.816406 -1.1875 C 9.871094 -1.71875 11.902344 -3.59375 13.429688 -5.953125 C 15.289062 -4.023438 18.265625 -3.179688 21.316406 -3.710938 C 26.152344 -4.550781 31.175781 -8.519531 32.945312 -19.730469 C 32.992188 -20.054688 32.992188 -20.367188 32.9375 -20.671875 C 32.652344 -22.300781 30.960938 -23 29.382812 -22.726562 C 28.058594 -22.496094 26.808594 -21.546875 26.585938 -19.828125 Z M 26.585938 -19.828125 "/></g></g></g><g fill="#0a0a1e" fill-opacity="0.502"><g transform="translate(213.891286, 251.901803)"><g><path d="M 23.226562 -19.246094 C 22.160156 -13.921875 20.210938 -9.757812 18.074219 -9.382812 C 17.363281 -9.261719 16.890625 -9.859375 16.769531 -10.570312 C 16.714844 -10.878906 16.695312 -11.292969 16.777344 -11.726562 L 18.328125 -20.59375 C 18.453125 -21.664062 18.5 -22.613281 18.347656 -23.480469 C 17.507812 -28.3125 11.046875 -29.285156 8.046875 -29.65625 C 8.128906 -30.089844 8.101562 -30.554688 8.03125 -30.960938 C 7.621094 -33.300781 5.191406 -34.921875 2.902344 -34.523438 C -0.101562 -34.003906 -1.421875 -31.046875 -0.914062 -28.148438 C -0.695312 -26.875 -0.0078125 -25.632812 0.984375 -24.753906 L -0.984375 -14.085938 C -1.015625 -13.660156 -0.996094 -13.246094 -0.941406 -12.941406 C -0.648438 -11.261719 0.824219 -10.628906 2.25 -10.875 C 3.671875 -11.121094 5.007812 -12.195312 5.332031 -13.929688 L 6.855469 -22.054688 C 8.359375 -21.847656 10.304688 -21.816406 10.605469 -20.085938 C 10.648438 -19.832031 10.652344 -19.519531 10.609375 -19.144531 L 9.453125 -12.546875 C 9.25 -11.308594 9.230469 -10.203125 9.410156 -9.1875 C 10.179688 -4.757812 14.195312 -2.472656 18.417969 -3.207031 C 23.964844 -4.171875 28.140625 -9.984375 29.644531 -19.105469 C 29.695312 -19.425781 29.699219 -19.691406 29.65625 -19.945312 C 29.390625 -21.46875 27.535156 -22.195312 25.90625 -21.914062 C 24.585938 -21.683594 23.417969 -20.851562 23.226562 -19.246094 Z M 23.226562 -19.246094 "/></g></g></g><g fill="#0a0a1e" fill-opacity="0.502"><g transform="translate(237.955437, 247.713042)"><g><path d="M 25.839844 -19.59375 C 24.664062 -13.097656 22.296875 -10.121094 19.90625 -9.703125 C 18.992188 -9.542969 18.402344 -9.914062 18.253906 -10.777344 C 18.191406 -11.132812 18.222656 -11.558594 18.285156 -12.09375 L 20.289062 -24.078125 C 20.46875 -25.160156 20.511719 -26.109375 20.359375 -26.976562 C 19.652344 -31.046875 15.660156 -33.496094 11.589844 -32.789062 C 9.605469 -32.441406 8.109375 -31.710938 6.953125 -30.511719 C 6.488281 -31.375 5.128906 -31.664062 3.757812 -31.421875 C 2.332031 -31.175781 1.074219 -30.273438 0.8125 -28.761719 L -3.546875 -3.523438 C -3.621094 -3.039062 -3.601562 -2.621094 -3.53125 -2.214844 C -3.203125 -0.332031 -1.558594 0.375 0.0703125 0.09375 C 1.847656 -0.21875 3.691406 -1.691406 4.054688 -4.113281 C 4.976562 -9.359375 6.203125 -16.753906 7.085938 -21.9375 C 8.015625 -24.722656 9.582031 -26.253906 11.007812 -26.5 C 11.921875 -26.660156 12.691406 -26.164062 12.859375 -25.199219 C 12.921875 -24.839844 12.898438 -24.367188 12.828125 -23.882812 L 10.9375 -12.753906 C 10.734375 -11.511719 10.675781 -10.351562 10.859375 -9.28125 C 11.675781 -4.601562 15.976562 -2.78125 20.300781 -3.535156 C 25.488281 -4.4375 30.425781 -8.914062 32.207031 -19.445312 C 32.289062 -19.878906 32.320312 -20.304688 32.257812 -20.660156 C 31.976562 -22.289062 30.347656 -22.894531 28.824219 -22.628906 C 27.449219 -22.390625 26.054688 -21.363281 25.839844 -19.59375 Z M 25.839844 -19.59375 "/></g></g></g><g fill="#0a0a1e" fill-opacity="0.502"><g transform="translate(264.665118, 243.063784)"><g><path d="M 28.90625 -22.75 C 27.480469 -22.5 26.054688 -21.363281 25.78125 -19.320312 C 24.886719 -12.71875 22.042969 -10.074219 19.753906 -9.675781 C 18.890625 -9.527344 18.300781 -9.894531 18.160156 -10.710938 C 18.089844 -11.117188 18.101562 -11.644531 18.15625 -12.230469 L 20.984375 -29.703125 C 21.082031 -30.351562 21.085938 -30.929688 21 -31.4375 C 20.609375 -33.675781 18.574219 -34.527344 16.691406 -34.199219 C 15.265625 -33.953125 13.90625 -33.03125 13.3125 -31.621094 C 12.128906 -32.09375 10.015625 -32.511719 7.417969 -32.0625 C 4.0625 -31.476562 0.71875 -29.007812 0.0234375 -24.851562 L -2.375 -10.332031 C -2.519531 -9.363281 -2.566406 -8.414062 -2.40625 -7.496094 C -1.671875 -3.273438 2.339844 -0.40625 6.816406 -1.1875 C 9.207031 -1.601562 11.464844 -3.097656 13.054688 -5.101562 C 15.089844 -3.046875 18.773438 -3.269531 20.300781 -3.535156 C 24.523438 -4.269531 29.796875 -7.386719 31.621094 -16.199219 C 31.988281 -18.304688 32.324219 -19.675781 32.164062 -20.589844 C 31.863281 -22.320312 30.382812 -23.007812 28.90625 -22.75 Z M 12.027344 -20.335938 L 10.90625 -12.328125 C 10.414062 -8.835938 8.613281 -7.738281 7.542969 -7.550781 C 6.425781 -7.355469 5.742188 -7.972656 5.539062 -9.140625 C 5.421875 -9.800781 5.46875 -10.441406 5.542969 -10.925781 L 7.019531 -21.71875 C 7.445312 -24.988281 8.796875 -25.644531 9.613281 -25.785156 C 10.578125 -25.953125 11.816406 -25.171875 12.117188 -23.445312 C 12.25 -22.679688 12.214844 -21.679688 12.027344 -20.335938 Z M 12.027344 -20.335938 "/></g></g></g><g fill="#0a0a1e" fill-opacity="0.502"><g transform="translate(291.374798, 238.414526)"><g><path d="M 5.527344 -9.507812 L 10.828125 -42.300781 C 10.921875 -42.945312 10.917969 -43.574219 10.832031 -44.082031 C 10.492188 -46.015625 8.441406 -46.96875 6.914062 -46.703125 C 4.980469 -46.367188 3.894531 -45.078125 3.480469 -42.644531 L -1.84375 -10.582031 C -2.046875 -9.339844 -2.0625 -8.238281 -1.875 -7.167969 C -1.0625 -2.488281 3.257812 -0.566406 7.734375 -1.347656 C 12.566406 -2.1875 18.097656 -6.242188 19.816406 -17.445312 C 19.859375 -17.820312 19.847656 -18.183594 19.792969 -18.488281 C 19.511719 -20.117188 17.882812 -21.039062 16.304688 -20.765625 C 15.03125 -20.542969 13.792969 -19.542969 13.40625 -17.535156 C 12.179688 -11.03125 9.679688 -7.921875 7.289062 -7.507812 C 6.273438 -7.328125 5.605469 -7.84375 5.472656 -8.605469 C 5.4375 -8.808594 5.476562 -9.183594 5.527344 -9.507812 Z M 5.527344 -9.507812 "/></g></g></g><g fill="#f4f4eb" fill-opacity="1"><g transform="translate(155.60325, 256.490892)"><g><path d="M 19.671875 -14.378906 C 19.679688 -14.328125 19.539062 -15.140625 19.164062 -16.074219 C 19.476562 -16.390625 19.761719 -16.859375 19.988281 -17.371094 C 20.632812 -18.792969 21.386719 -23.484375 21.035156 -25.519531 C 20.128906 -30.710938 15.253906 -33.425781 9.757812 -32.46875 C 4.976562 -31.636719 0.910156 -28.203125 0.0703125 -23.390625 L -1.820312 -12.261719 C -2.058594 -10.910156 -2.039062 -9.605469 -1.84375 -8.484375 C -0.914062 -3.144531 4.222656 -0.734375 9.414062 -1.636719 C 13.378906 -2.328125 16.773438 -4.230469 18.269531 -8.265625 C 19.230469 -8.171875 20.324219 -8.203125 21.394531 -8.390625 C 27.398438 -9.433594 31.386719 -14.53125 32.183594 -20.175781 C 32.242188 -20.761719 32.253906 -21.289062 32.175781 -21.746094 C 31.847656 -23.628906 30.285156 -24.457031 28.8125 -24.199219 C 27.4375 -23.960938 26.15625 -22.898438 25.921875 -20.917969 C 25.351562 -17.570312 23.394531 -14.976562 20.390625 -14.453125 C 20.1875 -14.417969 19.882812 -14.363281 19.671875 -14.378906 Z M 13.574219 -21.390625 C 13.5 -20.90625 13.421875 -20.472656 13.441406 -20.058594 C 10.589844 -19.875 8.492188 -17.152344 9.027344 -14.097656 C 9.378906 -12.378906 10.402344 -11.613281 11.511719 -10.96875 C 11.160156 -9.070312 9.832031 -7.949219 8.257812 -7.675781 C 6.273438 -7.328125 5.550781 -8.460938 5.339844 -9.683594 C 5.171875 -10.648438 5.265625 -11.609375 5.378906 -12.152344 L 7.195312 -23.109375 C 7.511719 -24.894531 9.125 -26.171875 10.703125 -26.445312 C 12.28125 -26.722656 13.484375 -25.832031 13.6875 -24.660156 C 13.847656 -23.746094 13.746094 -22.519531 13.574219 -21.390625 Z M 13.574219 -21.390625 "/></g></g></g><g fill="#f4f4eb" fill-opacity="1"><g transform="translate(182.160304, 251.868201)"><g><path d="M 26.585938 -19.828125 C 25.359375 -13.324219 23.011719 -10.242188 20.671875 -9.835938 C 19.753906 -9.675781 19.054688 -10.078125 18.933594 -10.792969 C 18.894531 -10.996094 18.894531 -11.308594 18.953125 -11.582031 L 22.046875 -29.628906 C 22.164062 -30.171875 22.132812 -30.636719 22.054688 -31.097656 C 21.699219 -33.132812 19.679688 -34.195312 17.847656 -33.875 C 16.375 -33.621094 14.996094 -32.488281 14.605469 -30.21875 L 11.730469 -13.625 C 10.792969 -10.578125 9.019531 -7.808594 6.984375 -7.453125 C 6.222656 -7.320312 5.726562 -7.757812 5.59375 -8.523438 C 5.523438 -8.929688 5.507812 -9.609375 5.574219 -10.144531 L 8.355469 -26.980469 C 8.460938 -27.578125 8.476562 -28.105469 8.386719 -28.613281 C 8.023438 -30.699219 5.945312 -31.804688 4.0625 -31.476562 C 2.636719 -31.230469 1.261719 -30.097656 0.902344 -27.9375 L -2.03125 -9.554688 C -2.175781 -8.585938 -2.167969 -7.640625 -2.019531 -6.777344 C -1.300781 -2.65625 2.542969 -0.441406 6.816406 -1.1875 C 9.871094 -1.71875 11.902344 -3.59375 13.429688 -5.953125 C 15.289062 -4.023438 18.265625 -3.179688 21.316406 -3.710938 C 26.152344 -4.550781 31.175781 -8.519531 32.945312 -19.730469 C 32.992188 -20.054688 32.992188 -20.367188 32.9375 -20.671875 C 32.652344 -22.300781 30.960938 -23 29.382812 -22.726562 C 28.058594 -22.496094 26.808594 -21.546875 26.585938 -19.828125 Z M 26.585938 -19.828125 "/></g></g></g><g fill="#f4f4eb" fill-opacity="1"><g transform="translate(209.582242, 247.094963)"><g><path d="M 23.226562 -19.246094 C 22.160156 -13.921875 20.210938 -9.757812 18.074219 -9.382812 C 17.363281 -9.261719 16.890625 -9.859375 16.769531 -10.570312 C 16.714844 -10.878906 16.695312 -11.292969 16.777344 -11.726562 L 18.328125 -20.59375 C 18.453125 -21.664062 18.5 -22.613281 18.347656 -23.480469 C 17.507812 -28.3125 11.046875 -29.285156 8.046875 -29.65625 C 8.128906 -30.089844 8.101562 -30.554688 8.03125 -30.960938 C 7.621094 -33.300781 5.191406 -34.921875 2.902344 -34.523438 C -0.101562 -34.003906 -1.421875 -31.046875 -0.914062 -28.148438 C -0.695312 -26.875 -0.0078125 -25.632812 0.984375 -24.753906 L -0.984375 -14.085938 C -1.015625 -13.660156 -0.996094 -13.246094 -0.941406 -12.941406 C -0.648438 -11.261719 0.824219 -10.628906 2.25 -10.875 C 3.671875 -11.121094 5.007812 -12.195312 5.332031 -13.929688 L 6.855469 -22.054688 C 8.359375 -21.847656 10.304688 -21.816406 10.605469 -20.085938 C 10.648438 -19.832031 10.652344 -19.519531 10.609375 -19.144531 L 9.453125 -12.546875 C 9.25 -11.308594 9.230469 -10.203125 9.410156 -9.1875 C 10.179688 -4.757812 14.195312 -2.472656 18.417969 -3.207031 C 23.964844 -4.171875 28.140625 -9.984375 29.644531 -19.105469 C 29.695312 -19.425781 29.699219 -19.691406 29.65625 -19.945312 C 29.390625 -21.46875 27.535156 -22.195312 25.90625 -21.914062 C 24.585938 -21.683594 23.417969 -20.851562 23.226562 -19.246094 Z M 23.226562 -19.246094 "/></g></g></g><g fill="#f4f4eb" fill-opacity="1"><g transform="translate(233.646394, 242.906203)"><g><path d="M 25.839844 -19.59375 C 24.664062 -13.097656 22.296875 -10.121094 19.90625 -9.703125 C 18.992188 -9.542969 18.402344 -9.914062 18.253906 -10.777344 C 18.191406 -11.132812 18.222656 -11.558594 18.285156 -12.09375 L 20.289062 -24.078125 C 20.46875 -25.160156 20.511719 -26.109375 20.359375 -26.976562 C 19.652344 -31.046875 15.660156 -33.496094 11.589844 -32.789062 C 9.605469 -32.441406 8.109375 -31.710938 6.953125 -30.511719 C 6.488281 -31.375 5.128906 -31.664062 3.757812 -31.421875 C 2.332031 -31.175781 1.074219 -30.273438 0.8125 -28.761719 L -3.546875 -3.523438 C -3.621094 -3.039062 -3.601562 -2.621094 -3.53125 -2.214844 C -3.203125 -0.332031 -1.558594 0.375 0.0703125 0.09375 C 1.847656 -0.21875 3.691406 -1.691406 4.054688 -4.113281 C 4.976562 -9.359375 6.203125 -16.753906 7.085938 -21.9375 C 8.015625 -24.722656 9.582031 -26.253906 11.007812 -26.5 C 11.921875 -26.660156 12.691406 -26.164062 12.859375 -25.199219 C 12.921875 -24.839844 12.898438 -24.367188 12.828125 -23.882812 L 10.9375 -12.753906 C 10.734375 -11.511719 10.675781 -10.351562 10.859375 -9.28125 C 11.675781 -4.601562 15.976562 -2.78125 20.300781 -3.535156 C 25.488281 -4.4375 30.425781 -8.914062 32.207031 -19.445312 C 32.289062 -19.878906 32.320312 -20.304688 32.257812 -20.660156 C 31.976562 -22.289062 30.347656 -22.894531 28.824219 -22.628906 C 27.449219 -22.390625 26.054688 -21.363281 25.839844 -19.59375 Z M 25.839844 -19.59375 "/></g></g></g><g fill="#f4f4eb" fill-opacity="1"><g transform="translate(260.356074, 238.256945)"><g><path d="M 28.90625 -22.75 C 27.480469 -22.5 26.054688 -21.363281 25.78125 -19.320312 C 24.886719 -12.71875 22.042969 -10.074219 19.753906 -9.675781 C 18.890625 -9.527344 18.300781 -9.894531 18.160156 -10.710938 C 18.089844 -11.117188 18.101562 -11.644531 18.15625 -12.230469 L 20.984375 -29.703125 C 21.082031 -30.351562 21.085938 -30.929688 21 -31.4375 C 20.609375 -33.675781 18.574219 -34.527344 16.691406 -34.199219 C 15.265625 -33.953125 13.90625 -33.03125 13.3125 -31.621094 C 12.128906 -32.09375 10.015625 -32.511719 7.417969 -32.0625 C 4.0625 -31.476562 0.71875 -29.007812 0.0234375 -24.851562 L -2.375 -10.332031 C -2.519531 -9.363281 -2.566406 -8.414062 -2.40625 -7.496094 C -1.671875 -3.273438 2.339844 -0.40625 6.816406 -1.1875 C 9.207031 -1.601562 11.464844 -3.097656 13.054688 -5.101562 C 15.089844 -3.046875 18.773438 -3.269531 20.300781 -3.535156 C 24.523438 -4.269531 29.796875 -7.386719 31.621094 -16.199219 C 31.988281 -18.304688 32.324219 -19.675781 32.164062 -20.589844 C 31.863281 -22.320312 30.382812 -23.007812 28.90625 -22.75 Z M 12.027344 -20.335938 L 10.90625 -12.328125 C 10.414062 -8.835938 8.613281 -7.738281 7.542969 -7.550781 C 6.425781 -7.355469 5.742188 -7.972656 5.539062 -9.140625 C 5.421875 -9.800781 5.46875 -10.441406 5.542969 -10.925781 L 7.019531 -21.71875 C 7.445312 -24.988281 8.796875 -25.644531 9.613281 -25.785156 C 10.578125 -25.953125 11.816406 -25.171875 12.117188 -23.445312 C 12.25 -22.679688 12.214844 -21.679688 12.027344 -20.335938 Z M 12.027344 -20.335938 "/></g></g></g><g fill="#f4f4eb" fill-opacity="1"><g transform="translate(287.065755, 233.607687)"><g><path d="M 5.527344 -9.507812 L 10.828125 -42.300781 C 10.921875 -42.945312 10.917969 -43.574219 10.832031 -44.082031 C 10.492188 -46.015625 8.441406 -46.96875 6.914062 -46.703125 C 4.980469 -46.367188 3.894531 -45.078125 3.480469 -42.644531 L -1.84375 -10.582031 C -2.046875 -9.339844 -2.0625 -8.238281 -1.875 -7.167969 C -1.0625 -2.488281 3.257812 -0.566406 7.734375 -1.347656 C 12.566406 -2.1875 18.097656 -6.242188 19.816406 -17.445312 C 19.859375 -17.820312 19.847656 -18.183594 19.792969 -18.488281 C 19.511719 -20.117188 17.882812 -21.039062 16.304688 -20.765625 C 15.03125 -20.542969 13.792969 -19.542969 13.40625 -17.535156 C 12.179688 -11.03125 9.679688 -7.921875 7.289062 -7.507812 C 6.273438 -7.328125 5.605469 -7.84375 5.472656 -8.605469 C 5.4375 -8.808594 5.476562 -9.183594 5.527344 -9.507812 Z M 5.527344 -9.507812 "/></g></g></g></svg>