<svg xmlns="http://www.w3.org/2000/svg" version="1.1" xmlns:xlink="http://www.w3.org/1999/xlink" xmlns:svgjs="http://svgjs.com/svgjs" width="2560" height="1440" preserveAspectRatio="none" viewBox="0 0 2560 1440"><g mask="url(&quot;#SvgjsMask1004&quot;)" fill="none"><rect width="2560" height="1440" x="0" y="0" fill="rgba(44, 59, 78, 1)"></rect><path d="M1491.8078665828875 450.3603658410111L1192.1281895648908 577.566841664979 1619.0143424068553 750.0400428590077z" fill="rgba(28, 83, 142, 0.4)" class="triangle-float3"></path><path d="M1180.651,1033.561C1291.588,1031.669,1407.415,999.904,1462.782,903.753C1518.063,807.751,1490.983,689.57,1433.133,595.094C1378.142,505.288,1285.871,447.231,1180.651,443.001C1067.074,438.436,951.375,477.359,890.38,573.277C825.1,675.932,816.455,810.767,881.347,913.667C942.792,1011.101,1065.477,1035.525,1180.651,1033.561" fill="rgba(28, 83, 142, 0.4)" class="triangle-float3"></path><path d="M2142.32,1409.147C2292.256,1414.929,2427.088,1324.006,2503.554,1194.905C2581.607,1063.123,2601.191,898.259,2522.876,766.632C2446.061,637.526,2292.249,578.277,2142.32,587.764C2007.647,596.285,1901.409,691.489,1836.937,810.033C1775.673,922.678,1768.086,1054.548,1826.318,1168.79C1890.733,1295.163,2000.582,1403.681,2142.32,1409.147" fill="rgba(28, 83, 142, 0.4)" class="triangle-float2"></path><path d="M2030.634,398.53C2089.891,403.228,2149.409,376.35,2180.106,325.447C2211.737,272.996,2209.786,206.428,2178.089,154.016C2147.443,103.341,2089.811,76.015,2030.634,78.292C1975.204,80.425,1926.449,115.058,1901.603,164.654C1879.067,209.638,1892.952,260.555,1917.256,304.608C1942.665,350.663,1978.2,394.373,2030.634,398.53" fill="rgba(28, 83, 142, 0.4)" class="triangle-float2"></path><path d="M200.97437084091794 233.83238248605235L610.1258496067808 255.27510287854366 631.5685699992721-153.87637588731914 222.41709123340925-175.31909627981045z" fill="rgba(28, 83, 142, 0.4)" class="triangle-float3"></path><path d="M894.115,1272.812C933.282,1273.971,966.506,1247.194,986.286,1213.369C1006.283,1179.174,1013.126,1137.182,993.575,1102.73C973.803,1067.888,934.174,1050.561,894.115,1050.951C854.771,1051.334,816.354,1069.857,797.954,1104.635C780.519,1137.589,792.423,1175.816,810.929,1208.181C829.61,1240.852,856.496,1271.699,894.115,1272.812" fill="rgba(28, 83, 142, 0.4)" class="triangle-float2"></path><path d="M-301.5 459.28 a333.76 333.76 0 1 0 667.52 0 a333.76 333.76 0 1 0 -667.52 0z" fill="rgba(28, 83, 142, 0.4)" class="triangle-float2"></path><path d="M-49.76 1099.44 a397.14 397.14 0 1 0 794.28 0 a397.14 397.14 0 1 0 -794.28 0z" fill="rgba(28, 83, 142, 0.4)" class="triangle-float2"></path><path d="M139.516,929.283C199.508,927.46,250.598,891.72,282.293,840.751C316.193,786.237,339.343,717.032,305.382,662.556C272.593,609.96,201.39,608.111,139.516,611.724C85.41,614.884,34.166,635.041,4.122,680.149C-29.813,731.099,-48.36,796.125,-19.129,849.912C11.133,905.596,76.169,931.208,139.516,929.283" fill="rgba(28, 83, 142, 0.4)" class="triangle-float1"></path></g><defs><mask id="SvgjsMask1004"><rect width="2560" height="1440" fill="#ffffff"></rect></mask><style>
            @keyframes float1 {
                0%{transform: translate(0, 0)}
                50%{transform: translate(-10px, 0)}
                100%{transform: translate(0, 0)}
            }

            .triangle-float1 {
                animation: float1 5s infinite;
            }

            @keyframes float2 {
                0%{transform: translate(0, 0)}
                50%{transform: translate(-5px, -5px)}
                100%{transform: translate(0, 0)}
            }

            .triangle-float2 {
                animation: float2 4s infinite;
            }

            @keyframes float3 {
                0%{transform: translate(0, 0)}
                50%{transform: translate(0, -10px)}
                100%{transform: translate(0, 0)}
            }

            .triangle-float3 {
                animation: float3 6s infinite;
            }
        </style></defs></svg>