<svg xmlns="http://www.w3.org/2000/svg" xmlns:xlink="http://www.w3.org/1999/xlink" width="500" zoomAndPan="magnify" viewBox="0 0 375 374.999991" height="500" preserveAspectRatio="xMidYMid meet" version="1.0"><defs><g/><clipPath id="cafb1b8390"><path d="M 34.472656 46.46875 L 347.960938 46.46875 L 347.960938 352 L 34.472656 352 Z M 34.472656 46.46875 " clip-rule="nonzero"/></clipPath><clipPath id="0ae80777b1"><path d="M 22.25 34.246094 L 335.75 34.246094 L 335.75 340.996094 L 22.25 340.996094 Z M 22.25 34.246094 " clip-rule="nonzero"/></clipPath></defs><g clip-path="url(#cafb1b8390)"><path fill="#1e9aff" d="M 34.472656 46.46875 L 349.613281 46.46875 L 349.613281 351.445312 L 34.472656 351.445312 Z M 34.472656 46.46875 " fill-opacity="1" fill-rule="nonzero"/></g><g clip-path="url(#0ae80777b1)"><path stroke-linecap="butt" transform="matrix(0.750028, 0, 0, 0.750602, 22.248286, 34.246891)" fill="none" stroke-linejoin="miter" d="M 0.00228493 -0.0010623 L 417.98665 -0.0010623 L 417.98665 408.670837 L 0.00228493 408.670837 L 0.00228493 -0.0010623 " stroke="#000000" stroke-width="4" stroke-opacity="1" stroke-miterlimit="4"/></g><g fill="#0a0a1e" fill-opacity="0.302"><g transform="translate(150.903074, 310.906435)"><g><path d="M 81.777344 -173.675781 L 34.078125 -165.371094 C 25.050781 -163.609375 21.128906 -155.5 22.316406 -148.660156 C 23.378906 -142.558594 28.445312 -137.535156 37.875 -139.175781 L 57.289062 -142.554688 L 43.007812 -51.679688 C 40.527344 -36.390625 33.9375 -30.480469 25.246094 -28.96875 C 21.734375 -28.355469 18.46875 -31.789062 18.179688 -33.453125 C 18.234375 -34.222656 18.074219 -35.148438 17.945312 -35.886719 C 16.691406 -43.097656 9.078125 -46.34375 2.234375 -45.15625 C -4.605469 -43.964844 -10.859375 -38.304688 -8.992188 -27.582031 C -6.03125 -10.570312 12.21875 0.160156 32.558594 -3.382812 C 48.085938 -6.085938 67.28125 -18.378906 72.15625 -48.371094 L 91.585938 -169.859375 C 92.058594 -172.609375 89.914062 -175.09375 86.953125 -174.578125 Z M 81.777344 -173.675781 "/></g></g></g><g fill="#0a0a1e" fill-opacity="0.502"><g transform="translate(138.062443, 296.582447)"><g><path d="M 81.777344 -173.675781 L 34.078125 -165.371094 C 25.050781 -163.609375 21.128906 -155.5 22.316406 -148.660156 C 23.378906 -142.558594 28.445312 -137.535156 37.875 -139.175781 L 57.289062 -142.554688 L 43.007812 -51.679688 C 40.527344 -36.390625 33.9375 -30.480469 25.246094 -28.96875 C 21.734375 -28.355469 18.46875 -31.789062 18.179688 -33.453125 C 18.234375 -34.222656 18.074219 -35.148438 17.945312 -35.886719 C 16.691406 -43.097656 9.078125 -46.34375 2.234375 -45.15625 C -4.605469 -43.964844 -10.859375 -38.304688 -8.992188 -27.582031 C -6.03125 -10.570312 12.21875 0.160156 32.558594 -3.382812 C 48.085938 -6.085938 67.28125 -18.378906 72.15625 -48.371094 L 91.585938 -169.859375 C 92.058594 -172.609375 89.914062 -175.09375 86.953125 -174.578125 Z M 81.777344 -173.675781 "/></g></g></g><g fill="#f4f4eb" fill-opacity="1"><g transform="translate(125.22183, 282.258429)"><g><path d="M 81.777344 -173.675781 L 34.078125 -165.371094 C 25.050781 -163.609375 21.128906 -155.5 22.316406 -148.660156 C 23.378906 -142.558594 28.445312 -137.535156 37.875 -139.175781 L 57.289062 -142.554688 L 43.007812 -51.679688 C 40.527344 -36.390625 33.9375 -30.480469 25.246094 -28.96875 C 21.734375 -28.355469 18.46875 -31.789062 18.179688 -33.453125 C 18.234375 -34.222656 18.074219 -35.148438 17.945312 -35.886719 C 16.691406 -43.097656 9.078125 -46.34375 2.234375 -45.15625 C -4.605469 -43.964844 -10.859375 -38.304688 -8.992188 -27.582031 C -6.03125 -10.570312 12.21875 0.160156 32.558594 -3.382812 C 48.085938 -6.085938 67.28125 -18.378906 72.15625 -48.371094 L 91.585938 -169.859375 C 92.058594 -172.609375 89.914062 -175.09375 86.953125 -174.578125 Z M 81.777344 -173.675781 "/></g></g></g></svg>