<svg xmlns="http://www.w3.org/2000/svg" version="1.1" xmlns:xlink="http://www.w3.org/1999/xlink" xmlns:svgjs="http://svgjs.com/svgjs" width="1440" height="560" preserveAspectRatio="none" viewBox="0 0 1440 560"><g mask="url(&quot;#SvgjsMask1198&quot;)" fill="none"><rect width="1440" height="560" x="0" y="0" fill="url(#SvgjsLinearGradient1199)"></rect><path d="M112.94 95.86 a95.71 95.71 0 1 0 191.42 0 a95.71 95.71 0 1 0 -191.42 0z" fill="rgba(28, 83, 142, 0.4)" class="triangle-float3"></path><path d="M493.96 346.46 a123.35 123.35 0 1 0 246.7 0 a123.35 123.35 0 1 0 -246.7 0z" fill="rgba(28, 83, 142, 0.4)" class="triangle-float1"></path><path d="M-124.15 413.55 a152.71 152.71 0 1 0 305.42 0 a152.71 152.71 0 1 0 -305.42 0z" fill="rgba(28, 83, 142, 0.4)" class="triangle-float1"></path><path d="M597.0769698722833 140.06920187782708L612.7608566163208 289.29141641935087 746.299184413807 124.38531513378953z" fill="rgba(28, 83, 142, 0.4)" class="triangle-float3"></path><path d="M783.0606228263387 241.76208902933874L835.9392155900591 200.44880455314188 747.5299924939036 141.78755764565966z" fill="rgba(28, 83, 142, 0.4)" class="triangle-float1"></path><path d="M1071.885,314.906C1102.444,313.995,1127.715,293.598,1142.799,267.005C1157.659,240.807,1161.291,209.214,1146.822,182.798C1131.797,155.366,1103.152,136.737,1071.885,137.535C1041.794,138.303,1018.534,160.503,1003.293,186.461C987.81,212.831,978.848,244.488,993.253,271.462C1008.372,299.773,1039.804,315.862,1071.885,314.906" fill="rgba(28, 83, 142, 0.4)" class="triangle-float1"></path><path d="M192.8149779980375 164.06481199849622L304.5700701490259 125.5844478451798 266.08970599570944 13.829355694191406 154.33461384472108 52.309719847507836z" fill="rgba(28, 83, 142, 0.4)" class="triangle-float1"></path><path d="M359.37 551.95 a167.5 167.5 0 1 0 335 0 a167.5 167.5 0 1 0 -335 0z" fill="rgba(28, 83, 142, 0.4)" class="triangle-float2"></path><path d="M1106.3593276701044 243.9855682009233L1115.8292416588583 311.3675074700857 1212.167193568225 263.4716668523736z" fill="rgba(28, 83, 142, 0.4)" class="triangle-float1"></path><path d="M198.198,638.05C239.469,639.594,281.08,622.183,301.587,586.334C321.973,550.695,315.381,506.353,293.349,471.707C272.922,439.584,236.252,422.736,198.198,423.751C161.928,424.718,129.762,445.236,111.45,476.559C92.952,508.2,90.051,546.78,107.395,579.068C125.701,613.146,159.541,636.604,198.198,638.05" fill="rgba(28, 83, 142, 0.4)" class="triangle-float3"></path></g><defs><mask id="SvgjsMask1198"><rect width="1440" height="560" fill="#ffffff"></rect></mask><linearGradient x1="15.28%" y1="-39.29%" x2="84.72%" y2="139.29%" gradientUnits="userSpaceOnUse" id="SvgjsLinearGradient1199"><stop stop-color="#0e2a47" offset="0"></stop><stop stop-color="rgba(33, 39, 48, 1)" offset="1"></stop></linearGradient><style>
            @keyframes float1 {
                0%{transform: translate(0, 0)}
                50%{transform: translate(-10px, 0)}
                100%{transform: translate(0, 0)}
            }

            .triangle-float1 {
                animation: float1 5s infinite;
            }

            @keyframes float2 {
                0%{transform: translate(0, 0)}
                50%{transform: translate(-5px, -5px)}
                100%{transform: translate(0, 0)}
            }

            .triangle-float2 {
                animation: float2 4s infinite;
            }

            @keyframes float3 {
                0%{transform: translate(0, 0)}
                50%{transform: translate(0, -10px)}
                100%{transform: translate(0, 0)}
            }

            .triangle-float3 {
                animation: float3 6s infinite;
            }
        </style></defs></svg>